# xmcd
#
# Track frame offsets:
# 150
# 17400
# 34142
# 49277
# 67237
# 86952
# 103005
# 124477
# 144117
# 163405
# 182382
#
# Disc length: 2660 seconds
#
#
# Revision: 2
# Processed by: cddbd v1.5.1PL2 Copyright (c) Steve Scherf et al.
# Submitted via: FreeRIP 2.10 
#
DISCID=9c0a620b
DTITLE=Chitãozinho and Xororó - Chitãozinho and Xoror - Chitãozinho and Xororó - Chitãozinho and Xoror
DYEAR=1987
DGENRE=sertanejo
TTITLE0=Meu Disfarce
TTITLE1=Fogão de Lenha
TTITLE2=Pé na Estrada
TTITLE3=Contratempos
TTITLE4=Que Mundo É Esse
TTITLE5=Coração
TTITLE6=Falando às Paredes
TTITLE7=A Colheita
TTITLE8=A Mais Bonita das Noites
TTITLE9=Eu Te Encontrei
TTITLE10=Nossas Divergências
EXTD=
EXTT0=
EXTT1=
EXTT2=
EXTT3=
EXTT4=
EXTT5=
EXTT6=
EXTT7=
EXTT8=
EXTT9=
EXTT10=
PLAYORDER=
